Coordinates
version=1
nRows=65
nColumns=12
inDegrees=yes

Units are S.I. units (second, meters, Newtons, ...)
Angles are in degrees

endheader
time	SC_y	SC_z	SC_x	AC_y	AC_z	AC_x	GH_y	GH_z	GH_yy	EL_x	PS_y
       0.0              -59.75         -2.252          84.31          33.66         -7.127          9.279          95.26          28.07         -7.818          77.23          60.34
   0.02296              -59.74         -2.247          84.31          33.66         -7.128          9.279          95.27          28.07         -7.835          77.24          60.35
   0.04592              -59.74         -2.241          84.31          33.67         -7.129          9.279          95.28          28.07         -7.854          77.25          60.37
   0.06887              -59.74         -2.234          84.31          33.67          -7.13          9.279          95.29          28.07         -7.874          77.26          60.38
   0.09183              -59.74         -2.228          84.31          33.67         -7.131          9.279          95.31          28.08         -7.895          77.26          60.39
    0.1148              -59.73          -2.22          84.31          33.68         -7.133          9.279          95.32          28.08         -7.917          77.27           60.4
    0.1377              -59.73         -2.213          84.31          33.68         -7.134          9.279          95.34          28.08         -7.941          77.28          60.42
    0.1607              -59.73         -2.204          84.31          33.69         -7.136           9.28          95.35          28.08         -7.967          77.29          60.43
    0.1837              -59.72         -2.196           84.3          33.69         -7.137           9.28          95.37          28.09         -7.995           77.3          60.45
    0.2066              -59.72         -2.186           84.3           33.7         -7.139           9.28          95.39          28.09         -8.024          77.31          60.47
    0.2296              -59.72         -2.176           84.3           33.7         -7.141           9.28          95.41          28.09         -8.056          77.32          60.48
    0.2525              -59.71         -2.165           84.3          33.71         -7.143           9.28          95.43           28.1          -8.09          77.34           60.5
    0.2755              -59.71         -2.153           84.3          33.71         -7.145           9.28          95.46           28.1         -8.127          77.35          60.53
    0.2985               -59.7         -2.141           84.3          33.72         -7.147           9.28          95.48           28.1         -8.167          77.36          60.55
    0.3214               -59.7         -2.127          84.29          33.73          -7.15           9.28          95.51          28.11          -8.21          77.38          60.57
    0.3444              -59.69         -2.112          84.29          33.74         -7.153           9.28          95.54          28.11         -8.256           77.4           60.6
    0.3673              -59.69         -2.096          84.29          33.74         -7.156          9.281          95.57          28.12         -8.307          77.42          60.63
    0.3903              -59.68         -2.078          84.29          33.75         -7.159          9.281          95.61          28.12         -8.362          77.44          60.66
    0.4132              -59.67         -2.058          84.28          33.76         -7.163          9.281          95.64          28.13         -8.422          77.46           60.7
    0.4362              -59.67         -2.037          84.28          33.78         -7.167          9.281          95.69          28.14         -8.488          77.48          60.74
    0.4592              -59.66         -2.014          84.28          33.79         -7.171          9.281          95.73          28.14         -8.561          77.51          60.78
    0.4821              -59.65         -1.989          84.27           33.8         -7.176          9.282          95.78          28.15         -8.641          77.54          60.83
    0.5051              -59.64          -1.96          84.27          33.82         -7.181          9.282          95.84          28.16         -8.729          77.57          60.88
     0.528              -59.63         -1.929          84.27          33.83         -7.187          9.282           95.9          28.17         -8.826          77.61          60.94
     0.551              -59.62         -1.894          84.26          33.85         -7.193          9.282          95.97          28.18         -8.935          77.65           61.0
    0.5739               -59.6         -1.855          84.25          33.87         -7.201          9.283          96.05           28.2         -9.056           77.7          61.07
    0.5969              -59.59         -1.812          84.25           33.9         -7.209          9.283          96.14          28.21         -9.192          77.75          61.15
    0.6199              -59.57         -1.763          84.24          33.92         -7.218          9.284          96.23          28.23         -9.344           77.8          61.24
    0.6428              -59.55         -1.708          84.23          33.95         -7.228          9.284          96.34          28.24         -9.517          77.87          61.34
    0.6658              -59.53         -1.645          84.22          33.99          -7.24          9.285          96.47          28.26         -9.713          77.94          61.46
    0.6887               -59.5         -1.573          84.21          34.03         -7.253          9.285          96.61          28.29         -9.936          78.02          61.59
    0.7117              -59.47         -1.491           84.2          34.07         -7.268          9.286          96.78          28.31         -10.19          78.12          61.74
    0.7346              -59.44         -1.396          84.19          34.12         -7.286          9.287          96.97          28.34         -10.49          78.23          61.92
    0.7576               -59.4         -1.286          84.17          34.18         -7.307          9.288          97.19          28.38         -10.83          78.36          62.12
    0.7806              -59.35         -1.157          84.15          34.25         -7.331          9.289          97.44          28.42         -11.24          78.51          62.36
    0.8035              -59.29         -1.005          84.13          34.33         -7.359          9.291          97.75          28.47         -11.71          78.68          62.64
    0.8265              -59.23        -0.8237           84.1          34.43         -7.392          9.292          98.11          28.53         -12.27          78.89          62.97
    0.8494              -59.15         -0.607          84.07          34.54         -7.433          9.294          98.54           28.6         -12.95          79.14          63.37
    0.8724              -59.06        -0.3448          84.03          34.69         -7.482          9.297          99.06          28.68         -13.77          79.45          63.85
    0.8954              -58.94       -0.02448          83.99          34.86         -7.541          9.299           99.7          28.79         -14.77          79.82          64.44
    0.9183               -58.8         0.3708          83.93          35.07         -7.615          9.303          100.5          28.91          -16.0          80.28          65.16
    0.9413              -58.62         0.8638          83.86          35.34         -7.706          9.308          101.5          29.07         -17.54          80.85          66.07
    0.9642              -58.39          1.485          83.77          35.67         -7.822          9.313          102.7          29.27         -19.47          81.57          67.21
    0.9872              -58.11          2.274          83.65          36.09         -7.969           9.32          104.3          29.53         -21.94          82.49          68.66
      1.01              -57.74          3.285          83.51          36.64         -8.157           9.33          106.3          29.85         -25.09          83.66          70.52
     1.033              -57.27          4.581          83.32          37.33         -8.398          9.342          108.9          30.27         -29.13          85.17           72.9
     1.056              -56.68          6.238          83.08          38.23         -8.706          9.357          112.2           30.8          -34.3          87.09          75.95
     1.079              -55.92           8.32          82.77          39.35         -9.094          9.376          116.3          31.47          -40.8           89.5          79.77
     1.102              -55.01          10.86          82.41          40.71         -9.566          9.399          121.4          32.29         -48.71          92.45          84.44
     1.125              -53.94           13.8          81.98          42.29         -10.11          9.426          127.3          33.24         -57.89          95.86          89.85
     1.148              -52.79          16.99          81.51          44.01         -10.71          9.455          133.6          34.26         -67.82          99.56           95.7
     1.171              -51.64          20.17          81.05          45.72          -11.3          9.484          140.0          35.29         -77.76          103.3          101.6
     1.194              -50.58          23.11          80.62           47.3         -11.85          9.511          145.9          36.24         -86.93          106.7          107.0
     1.217              -49.66          25.65          80.25          48.67         -12.32          9.534          150.9          37.05         -94.85          109.6          111.6
      1.24              -48.91          27.73          79.95          49.79         -12.71          9.553          155.1          37.72         -101.3          112.0          115.5
     1.263              -48.31          29.39          79.71          50.68         -13.01          9.568          158.4          38.26         -106.5          114.0          118.5
     1.286              -47.84          30.69          79.52          51.37         -13.25           9.58          161.0          38.67         -110.6          115.5          120.9
     1.309              -47.47           31.7          79.37          51.92         -13.44           9.59          163.0           39.0         -113.7          116.6          122.7
     1.332              -47.19          32.49          79.26          52.34         -13.59          9.597          164.6          39.25         -116.2          117.5          124.2
     1.355              -46.96          33.11          79.17          52.68         -13.71          9.602          165.8          39.45         -118.1          118.3          125.3
     1.377              -46.79           33.6           79.1          52.94          -13.8          9.607          166.8          39.61         -119.6          118.8          126.2
       1.4              -46.64           34.0          79.04          53.15         -13.87          9.611          167.6          39.74         -120.9          119.3          127.0
     1.423              -46.53          34.32          78.99          53.32         -13.93          9.613          168.2          39.84         -121.9          119.7          127.6
     1.446              -46.43          34.58          78.95          53.47         -13.98          9.616          168.7          39.93         -122.7          120.0          128.0
     1.469              -46.35          34.79          78.92          53.58         -14.02          9.618          169.2           40.0         -123.4          120.2          128.4
